 General
      Complete name : The.Birds.1963.DVDRip.H264.AAC.Gopo.mp4
      Format : MPEG-4
      Format profile : Base Media
      Codec ID : isom
      File size : 1.38 GiB
      Duration : 1h 54mn
      Overall bit rate : 1 719 Kbps
      Encoded date : UTC 2010-03-21 15:16:39
      Tagged date : UTC 2010-03-21 15:16:39
   Video #1
      ID : 1
      Format : AVC
      Format/Info : Advanced Video Codec
      Format profile : High@L4.1
      Format settings, CABAC : Yes
      Format settings, ReFrames : 6 frames
      Codec ID : avc1
      Codec ID/Info : Advanced Video Coding
      Duration : 1h 54mn
      Bit rate mode : Variable
      Bit rate : 1 523 Kbps
      Maximum bit rate : 6 327 Kbps
      Width : 720 pixels
      Height : 528 pixels
      Display aspect ratio : 4:3
      Frame rate mode : Constant
      Frame rate : 25.000 fps
      Resolution : 24 bits
      Colorimetry : 4:2:0
      Scan type : Progressive
      Bits/(Pixel*Frame) : 0.160
      Stream size : 1.22 GiB (89%)
      Writing library : x264 core 84 r1416 fcf70c2
      Encoding settings : cabac=1 / ref=6 / deblock=1:-3:-1 / analyse=0x3:0x133 / me=umh / subme=7 / psy=1 / psy_rd=1.0:0.1 / mixed_ref=1 / me_range=32 / chroma_me=1 / trellis=2 / 8x8dct=1 / cqm=0 / deadzone=21,11 / fast_pskip=0 / chroma_qp_offset=-3 / threads=2 / sliced_threads=0 / nr=0 / decimate=1 / mbaff=0 / constrained_intra=0 / bframes=6 / b_pyramid=2 / b_adapt=2 / b_bias=0 / direct=1 / wpredb=1 / wpredp=2 / keyint=250 / keyint_min=25 / scenecut=40 / intra_refresh=0 / rc_lookahead=40 / rc=2pass / mbtree=1 / bitrate=1523 / ratetol=1.0 / qcomp=0.60 / qpmin=10 / qpmax=51 / qpstep=4 / cplxblur=20.0 / qblur=0.5 / vbv_maxrate=40000 / vbv_bufsize=40000 / ip_ratio=1.40 / aq=1:1.00 / cabac=1 / ref=6 / deblock=1:-3:-1 / analyse=0x3:0x133 / me=umh / subme=7 / psy=1 / psy_rd=1.0:0.1 / mixed_ref=1 / me_range=32 / chroma_me=1 / trellis=2 / 8x8dct=1 / cqm=0 / deadzone=21,11 / fast_pskip=0 / chroma_qp_offset=-3 / threads=2 / sliced_threads=0 / nr=0 / decimate=1 / mbaff=0 / constrained_intra=0 / bframes=6 / b_pyramid=2 / b_adapt=2 / b_bias=0 / direct=1 / wpredb=1 / wpredp=2 / keyint=250 / keyint_min=25 / scenecut=40 / intra_refresh=0 / rc_lookahead=40 / rc=2pass / mbtree=1 / bitrate=1523 / ratetol=1.0 / qcomp=0.60 / qpmin=10 / qpmax=51 / qpstep=4 / cplxblur=20.0 / qblur=0.5 / vbv_maxrate=40000 / vbv_bufsize=40000 / ip_ratio=1.40 / aq=1:1.00
      Encoded date : UTC 2010-03-19 14:38:08
      Tagged date : UTC 2010-03-21 15:19:38
   Audio #2
      ID : 2
      Format : AAC
      Format/Info : Advanced Audio Codec
      Format version : Version 4
      Format profile : LC
      Format settings, SBR : No
      Codec ID : 40
      Duration : 1h 54mn
      Bit rate mode : Variable
      Bit rate : 192 Kbps
      Maximum bit rate : 232 Kbps
      Channel(s) : 2 channels
      Channel positions : L R
      Sampling rate : 48.0 KHz
      Resolution : 16 bits
      Stream size : 157 MiB (11%)
      Encoded date : UTC 2010-03-21 15:19:23
      Tagged date : UTC 2010-03-21 15:19:38
	Sample : YES
	Subtitle : English,Romanian

PLOT
A wealthy San Francisco playgirl pursues a potential boyfriend to a small Northern California town that slowly takes a turn for the bizarre when birds of all kinds suddenly begin to attack people there in increasing numbers and with increasing viciousness.
Director: Alfred Hitchcock
CASTING 
     
	Rod Taylor	... 	Mitch Brenner
	Suzanne Pleshette	... 	Annie Hayworth
	Jessica Tandy	... 	Lydia Brenner
	Tippi Hedren	... 	Melanie Daniels (as 'Tippi' Hedren)
	Veronica Cartwright	... 	Cathy Brenner
	Ethel Griffies	... 	Mrs. Bundy - Ornithologist
	Charles McGraw	... 	Sebastian Sholes - Fisherman in Diner
	Ruth McDevitt	... 	Mrs. MacGruder - Pet Store Clerk
	Lonny Chapman	... 	Deke Carter - Cook in Diner
	Joe Mantell	... 	Traveling Salesman at Diner's Bar
	Doodles Weaver	... 	Fisherman Helping with Rental Boat
	Malcolm Atterbury	... 	Deputy Al Malone
	John McGovern	... 	Postal Clerk
	Karl Swenson	... 	Doomsayer in Diner
	Richard Deacon	... 	Mitch's City Neighbor

SOURCE: The Birds (1963) DVD5 RETAIL 2Lions-Team

Notes: For best performance I suggest you to use KMPlayer(find it with google) for playback
These movies were made especially for PC and they don't play on a PS3.If you want to re-encode for PS3 or test for other devices be my guests.